<svg width="77.000000" height="72.000000" viewBox="0 0 77 72" fill="none" xmlns="http://www.w3.org/2000/svg" xmlns:xlink="http://www.w3.org/1999/xlink">
	<desc>
			Created with Pixso.
	</desc>
	<defs/>
	<rect id="Прямоугольник 2" y="3.000000" rx="11.000000" width="77.000000" height="65.000000" fill="#333333" fill-opacity="1.000000"/>
	<path id="G" d="M37.31 28.56Q37.91 29.17 38.34 29.96L47.41 29.96Q46.59 26.79 44.72 24.47Q43.53 22.99 41.92 21.85Q41.69 21.69 41.46 21.54Q37.44 18.92 31.71 18.92Q27.15 18.92 23.5 20.75Q23.16 20.92 22.83 21.11Q21 22.14 19.54 23.55Q17.91 25.14 16.76 27.2Q16.57 27.53 16.41 27.86Q14.58 31.52 14.58 36.1Q14.58 40.7 16.43 44.37Q16.59 44.68 16.76 44.98Q17.83 46.88 19.31 48.37Q20.86 49.94 22.86 51.05Q23.21 51.25 23.57 51.42Q27.22 53.23 31.77 53.23Q35.99 53.23 39.34 51.6Q42.59 50.02 44.74 47.5Q44.81 47.42 44.88 47.33Q46.92 44.87 47.85 42.05Q47.92 41.83 47.99 41.62L47.99 33.99L30.13 33.99L30.13 40.03L40.55 40.03Q39.67 42.66 37.87 44.16Q37.69 44.31 37.5 44.45Q37.24 44.64 36.97 44.81Q35.04 45.99 32.39 45.99Q28.84 45.99 26.51 44.3Q25.95 43.89 25.45 43.37Q25.22 43.13 25 42.87Q22.93 40.32 22.93 36.1Q22.93 32.28 24.75 29.81Q25.02 29.45 25.32 29.11Q26.1 28.26 27.05 27.69Q29.02 26.5 31.71 26.5Q34.02 26.5 35.72 27.39Q36.63 27.86 37.31 28.56Z" fill="#FFFFFF" fill-opacity="1.000000" fill-rule="evenodd"/>
	<path id="s" d="M53.81 43.59Q55.18 44.19 56.93 44.19Q58.56 44.19 59.8 43.66Q61.03 43.13 61.69 42.21Q61.96 41.83 62.12 41.41Q62.35 40.8 62.35 40.1Q62.33 38.75 61.66 37.93Q61.64 37.91 61.62 37.89Q61.04 37.21 60.31 36.84Q60.15 36.76 59.98 36.69Q59.04 36.31 57.55 35.93Q56.26 35.65 55.64 35.36Q55.25 35.17 55.11 34.87Q55.03 34.7 55.03 34.49Q55.03 34.24 55.14 34.04Q55.23 33.87 55.41 33.74Q55.8 33.46 56.52 33.46Q57.35 33.46 57.87 33.86Q57.87 33.87 57.88 33.87Q58.08 34.03 58.22 34.23Q58.43 34.55 58.49 34.97L62.28 34.97Q62.14 33.64 61.49 32.65Q61.13 32.11 60.61 31.66Q60.61 31.66 60.61 31.66Q59.16 30.41 56.65 30.41Q54.94 30.41 53.7 30.96Q52.47 31.51 51.83 32.46Q51.53 32.92 51.37 33.42Q51.2 33.96 51.2 34.56Q51.2 35.9 51.85 36.69Q51.87 36.71 51.89 36.74Q52.33 37.24 52.87 37.58Q53.19 37.77 53.55 37.91Q54.51 38.28 55.95 38.62Q57.29 38.96 57.89 39.23Q58.26 39.4 58.4 39.69Q58.49 39.86 58.49 40.08Q58.49 40.28 58.42 40.44Q58.32 40.68 58.07 40.87Q57.65 41.16 56.89 41.16Q56.15 41.16 55.62 40.83Q55.54 40.79 55.47 40.73Q55.16 40.5 54.99 40.19Q54.85 39.92 54.82 39.6L50.76 39.6Q50.81 40.24 51.02 40.81Q51.24 41.41 51.65 41.94Q51.66 41.96 51.66 41.97Q52.46 42.99 53.81 43.59Z" fill="#FFFFFF" fill-opacity="1.000000" fill-rule="evenodd"/>
</svg>
