<svg width="59.000000" height="55.000000" viewBox="0 0 59 55" fill="none" xmlns="http://www.w3.org/2000/svg" xmlns:xlink="http://www.w3.org/1999/xlink">
	<desc>
			Created with Pixso.
	</desc>
	<defs/>
	<rect id="Прямоугольник 2" y="2.355774" rx="11.000000" width="58.819447" height="49.652779" fill="#FFFFFF" fill-opacity="1.000000"/>
	<path id="G" d="M27.05 21.67Q27.51 22.13 27.83 22.72L34.63 22.72Q34.01 20.34 32.61 18.6Q31.72 17.49 30.51 16.63Q30.34 16.52 30.17 16.4Q27.15 14.44 22.85 14.44Q19.43 14.44 16.7 15.81Q16.44 15.94 16.19 16.08Q14.82 16.85 13.73 17.91Q12.51 19.1 11.64 20.65Q11.5 20.9 11.38 21.15Q10 23.89 10 27.32Q10 30.77 11.39 33.52Q11.51 33.76 11.64 33.98Q12.44 35.41 13.55 36.53Q14.72 37.7 16.22 38.54Q16.48 38.68 16.75 38.82Q19.49 40.17 22.9 40.17Q26.06 40.17 28.58 38.95Q31.02 37.77 32.63 35.88Q32.68 35.81 32.73 35.75Q34.26 33.9 34.96 31.78Q35.01 31.62 35.06 31.46L35.06 25.74L21.67 25.74L21.67 30.27L29.48 30.27Q28.83 32.24 27.47 33.37Q27.34 33.48 27.2 33.59Q27 33.73 26.8 33.86Q25.35 34.74 23.36 34.74Q20.7 34.74 18.96 33.47Q18.53 33.16 18.16 32.78Q17.98 32.6 17.82 32.4Q16.27 30.49 16.27 27.32Q16.27 24.46 17.64 22.6Q17.84 22.33 18.06 22.08Q18.65 21.45 19.36 21.02Q20.84 20.12 22.85 20.12Q24.59 20.12 25.86 20.79Q26.54 21.15 27.05 21.67Z" fill="#333333" fill-opacity="1.000000" fill-rule="evenodd"/>
	<path id="s" d="M40.43 33.42Q41.57 33.92 43.03 33.92Q44.39 33.92 45.42 33.48Q46.45 33.04 46.99 32.27Q47.22 31.95 47.35 31.6Q47.55 31.1 47.55 30.52Q47.53 29.39 46.97 28.71Q46.95 28.69 46.93 28.67Q46.46 28.1 45.84 27.79Q45.71 27.73 45.57 27.67Q44.79 27.36 43.55 27.04Q42.47 26.8 41.95 26.56Q41.63 26.41 41.51 26.15Q41.45 26.01 41.45 25.84Q41.45 25.63 41.53 25.46Q41.61 25.32 41.76 25.21Q42.09 24.98 42.69 24.98Q43.38 24.98 43.81 25.32Q43.81 25.32 43.81 25.32Q43.98 25.45 44.1 25.62Q44.28 25.88 44.33 26.24L47.49 26.24Q47.37 25.13 46.83 24.31Q46.53 23.85 46.1 23.48Q46.09 23.48 46.09 23.48Q44.88 22.44 42.79 22.44Q41.37 22.44 40.34 22.9Q39.31 23.36 38.78 24.15Q38.52 24.53 38.39 24.95Q38.25 25.4 38.25 25.9Q38.25 27.01 38.79 27.67Q38.81 27.69 38.82 27.71Q39.19 28.13 39.65 28.41Q39.91 28.58 40.21 28.69Q41.01 29 42.21 29.28Q43.33 29.56 43.82 29.79Q44.14 29.93 44.26 30.17Q44.33 30.32 44.33 30.5Q44.33 30.66 44.27 30.8Q44.19 31 43.98 31.15Q43.63 31.4 42.99 31.4Q42.38 31.4 41.93 31.13Q41.87 31.09 41.81 31.04Q41.55 30.84 41.41 30.58Q41.3 30.36 41.27 30.1L37.89 30.1Q37.93 30.63 38.1 31.1Q38.29 31.61 38.62 32.05Q38.63 32.06 38.64 32.07Q39.3 32.92 40.43 33.42Z" fill="#333333" fill-opacity="1.000000" fill-rule="evenodd"/>
</svg>

